<?xml version="1.0" standalone="no"?>
<!DOCTYPE svg PUBLIC "-//W3C//DTD SVG 20010904//EN"
 "http://www.w3.org/TR/2001/REC-SVG-20010904/DTD/svg10.dtd">
<svg version="1.0" xmlns="http://www.w3.org/2000/svg"
 width="700.000000pt" height="700.000000pt" viewBox="0 0 700.000000 700.000000"
 preserveAspectRatio="xMidYMid meet">
<metadata>
Created by potrace 1.14, written by Peter Selinger 2001-2017
</metadata>
<g transform="translate(0.000000,700.000000) scale(0.100000,-0.100000)"
fill="#000000" stroke="none">
<path d="M3305 6994 c-746 -49 -1422 -309 -2000 -770 -141 -112 -415 -387
-529 -529 -273 -341 -502 -775 -626 -1185 -50 -169 -104 -430 -126 -620 -24
-198 -24 -582 0 -780 79 -671 332 -1277 752 -1805 113 -141 388 -416 529 -529
526 -419 1134 -672 1805 -752 198 -24 582 -24 780 0 671 79 1278 332 1805 752
141 113 416 388 529 529 419 526 672 1134 752 1805 24 198 24 582 0 780 -80
671 -333 1280 -752 1805 -113 141 -388 416 -529 529 -445 354 -951 592 -1490
701 -93 19 -231 41 -305 50 -134 15 -481 26 -595 19z m228 -2234 c127 -39 236
-146 284 -278 47 -129 26 -299 -49 -404 -90 -124 -1513 -1870 -1545 -1895
-250 -198 -607 -95 -715 206 -40 111 -25 269 35 371 31 51 1494 1858 1541
1903 44 41 115 82 181 103 63 20 193 17 268 -6z m1830 -17 c76 -36 166 -116
204 -181 77 -131 82 -306 13 -441 -23 -45 -1454 -1818 -1536 -1903 -100 -104
-251 -155 -390 -131 -309 53 -474 380 -331 658 21 41 1437 1804 1526 1898 40
44 109 89 176 114 51 20 75 23 165 20 94 -2 112 -6 173 -34z"/>
</g>
</svg>
